<svg xmlns="http://www.w3.org/2000/svg" viewBox="0 0 1040 516" font-family="-apple-system, Segoe UI, Roboto, Helvetica, sans-serif">
  <defs>
    <filter id="soft" x="-20%" y="-20%" width="140%" height="140%">
      <feDropShadow dx="0" dy="3" stdDeviation="6" flood-color="#202124" flood-opacity="0.10"/>
    </filter>
    <linearGradient id="bg" x1="0" y1="0" x2="0" y2="1">
      <stop offset="0" stop-color="#FFFFFF"/><stop offset="1" stop-color="#F8F9FA"/>
    </linearGradient>
    <linearGradient id="teambar" x1="0" y1="0" x2="1" y2="0">
      <stop offset="0" stop-color="#4285F4"/><stop offset="0.5" stop-color="#34A853"/><stop offset="1" stop-color="#FBBC04"/>
    </linearGradient>
  </defs>

  <rect x="0" y="0" width="1040" height="516" rx="24" fill="url(#bg)"/>
  <rect x="0" y="0" width="1040" height="6" fill="url(#teambar)"/>

  <text x="40" y="62" font-size="31" font-weight="800" fill="#202124">Your leadership team, in about 5 minutes</text>
  <text x="40" y="92" font-size="16" fill="#5F6368">Free. Nothing to install beyond your AI. Three steps.</text>

  <g filter="url(#soft)">
    <rect x="828" y="40" width="172" height="40" rx="20" fill="#FFFFFF" stroke="#DADCE0"/>
  </g>
  <circle cx="854" cy="60" r="7" fill="#EA4335"/>
  <text x="870" y="65" font-size="15" font-weight="700" fill="#202124">Built for Claude</text>

  <g filter="url(#soft)">
    <rect x="716" y="88" width="284" height="34" rx="17" fill="#FFFFFF" stroke="#DADCE0"/>
  </g>
  <circle cx="740" cy="105" r="6" fill="#34A853"/>
  <text x="756" y="110" font-size="14" font-weight="700" fill="#202124">New free drop every Tuesday</text>

  <g filter="url(#soft)">
    <rect x="40" y="128" width="280" height="196" rx="18" fill="#FFFFFF" stroke="#E8EAED"/>
  </g>
  <rect x="40" y="128" width="280" height="7" rx="3.5" fill="#4285F4"/>
  <circle cx="76" cy="176" r="18" fill="#E8F0FE"/>
  <text x="76" y="182" font-size="18" font-weight="800" fill="#4285F4" text-anchor="middle">1</text>
  <g stroke="#4285F4" stroke-width="3.2" fill="none" stroke-linecap="round" stroke-linejoin="round">
    <line x1="244" y1="158" x2="244" y2="188"/>
    <polyline points="232,177 244,189 256,177"/>
    <path d="M226 198 h36"/>
  </g>
  <text x="76" y="238" font-size="20" font-weight="700" fill="#202124">Download the folder</text>
  <text x="76" y="266" font-size="14.5" fill="#5F6368">Grab the drop from GitHub</text>
  <text x="76" y="287" font-size="14.5" fill="#5F6368">and unzip it. Team inside.</text>

  <g stroke="#FBBC04" stroke-width="5" fill="none" stroke-linecap="round" stroke-linejoin="round">
    <polyline points="340,214 360,226 340,238"/>
  </g>

  <g filter="url(#soft)">
    <rect x="380" y="128" width="280" height="196" rx="18" fill="#FFFFFF" stroke="#E8EAED"/>
  </g>
  <rect x="380" y="128" width="280" height="7" rx="3.5" fill="#EA4335"/>
  <circle cx="416" cy="176" r="18" fill="#FCE8E6"/>
  <text x="416" y="182" font-size="18" font-weight="800" fill="#EA4335" text-anchor="middle">2</text>
  <g stroke="#EA4335" stroke-width="3" fill="none" stroke-linecap="round" stroke-linejoin="round">
    <path d="M572 158 h20 l12 12 v30 h-32 z"/>
    <line x1="578" y1="180" x2="600" y2="180"/>
    <line x1="578" y1="190" x2="600" y2="190"/>
  </g>
  <text x="416" y="238" font-size="20" font-weight="700" fill="#202124">Open Start Here.txt</text>
  <text x="416" y="266" font-size="14.5" fill="#5F6368">Copy the text inside, paste</text>
  <text x="416" y="287" font-size="14.5" fill="#5F6368">it into a new Claude chat.</text>

  <g stroke="#FBBC04" stroke-width="5" fill="none" stroke-linecap="round" stroke-linejoin="round">
    <polyline points="680,214 700,226 680,238"/>
  </g>

  <g filter="url(#soft)">
    <rect x="720" y="128" width="280" height="196" rx="18" fill="#FFFFFF" stroke="#E8EAED"/>
  </g>
  <rect x="720" y="128" width="280" height="7" rx="3.5" fill="#34A853"/>
  <circle cx="756" cy="176" r="18" fill="#E6F4EA"/>
  <text x="756" y="182" font-size="18" font-weight="800" fill="#34A853" text-anchor="middle">3</text>
  <g stroke="#34A853" stroke-width="3" fill="none" stroke-linecap="round" stroke-linejoin="round">
    <path d="M912 160 h44 a6 6 0 0 1 6 6 v20 a6 6 0 0 1 -6 6 h-30 l-14 10 v-10 a6 6 0 0 1 0 -32 z"/>
  </g>
  <path d="M934 170 l3 6 6 3 -6 3 -3 6 -3 -6 -6 -3 6 -3 z" fill="#FBBC04"/>
  <text x="756" y="238" font-size="20" font-weight="700" fill="#202124">Follow your Buddy</text>
  <text x="756" y="266" font-size="14.5" fill="#5F6368">It installs the team, then</text>
  <text x="756" y="287" font-size="14.5" fill="#5F6368">hands you the keys.</text>

  <text x="40" y="378" font-size="14" font-weight="700" letter-spacing="0.6" fill="#5F6368">BY THE END, YOUR TEAM</text>

  <g font-size="14.5" font-weight="700">
    <rect x="40"  y="398" width="150" height="42" rx="21" fill="#E8F0FE"/>
    <text x="115" y="424" fill="#1967D2" text-anchor="middle">Chief of Staff</text>

    <rect x="202" y="398" width="96" height="42" rx="21" fill="#FCE8E6"/>
    <text x="250" y="424" fill="#C5221F" text-anchor="middle">CFO</text>

    <rect x="310" y="398" width="104" height="42" rx="21" fill="#FEF7E0"/>
    <text x="362" y="424" fill="#9A6C00" text-anchor="middle">CPTO</text>

    <rect x="426" y="398" width="100" height="42" rx="21" fill="#E6F4EA"/>
    <text x="476" y="424" fill="#137333" text-anchor="middle">CISO</text>

    <rect x="538" y="398" width="98" height="42" rx="21" fill="#E8F0FE"/>
    <text x="587" y="424" fill="#1967D2" text-anchor="middle">CGO</text>

    <rect x="648" y="398" width="100" height="42" rx="21" fill="#FCE8E6"/>
    <text x="698" y="424" fill="#C5221F" text-anchor="middle">CMO</text>

    <text x="768" y="424" font-size="14.5" font-weight="400" fill="#5F6368">All free, all yours.</text>
  </g>

  <line x1="40" y1="470" x2="1000" y2="470" stroke="#E8EAED" stroke-width="1.5"/>
  <text x="40" y="497" font-size="13.5" fill="#5F6368">A free drop from a working leadership-team system.</text>
  <rect x="812" y="480" width="22" height="22" rx="5" fill="#0A66C2"/>
  <text x="823" y="496" font-size="12.5" font-weight="700" fill="#FFFFFF" text-anchor="middle">in</text>
  <text x="1000" y="496" font-size="15" font-weight="600" fill="#202124" text-anchor="end">Tomás Dostal Freire</text>
</svg>
